<svg width="13" height="19" viewBox="0 0 13 19" fill="none" xmlns="http://www.w3.org/2000/svg">
<path d="M9.12144 1.27122C7.84391 0.196009 6.25628 0.296369 4.9797 1.25376C4.17685 1.85587 3.88518 2.80732 3.69376 3.66276C3.64671 3.87303 3.60415 4.08641 3.56281 4.29363L3.55752 4.32014C3.51409 4.53781 3.47173 4.7489 3.42472 4.95555C3.33029 5.37066 3.22201 5.74428 3.06821 6.06789C2.75747 6.72172 2.51781 7.00031 2.26916 7.28936C2.25702 7.30346 2.24487 7.31759 2.23268 7.33179C1.93693 7.67642 1.64107 8.04252 1.29818 8.8678C0.15039 11.6303 0.0473878 14.64 2.29112 16.8238C4.64096 19.1109 8.0633 19.002 10.455 16.8361C12.7813 14.7296 12.9015 11.7649 11.912 8.89657C11.6366 8.09823 11.2981 7.60418 10.9825 7.14959L10.967 7.12722C10.665 6.69221 10.389 6.29474 10.1482 5.64573C9.95221 5.11748 9.96344 4.59006 9.97627 3.98713C9.97927 3.84594 9.98237 3.7006 9.98291 3.55015C9.9856 2.80078 9.9106 1.93539 9.12144 1.27122Z" fill="#B7F469"/>
<path d="M9.12144 1.27122C7.84391 0.196009 6.25628 0.296369 4.9797 1.25376C4.17685 1.85587 3.88518 2.80732 3.69376 3.66276C3.64671 3.87303 3.60415 4.08641 3.56281 4.29363L3.55752 4.32014C3.51409 4.53781 3.47173 4.7489 3.42472 4.95555C3.33029 5.37066 3.22201 5.74428 3.06821 6.06789C2.75747 6.72172 2.51781 7.00031 2.26916 7.28936C2.25702 7.30346 2.24487 7.31759 2.23268 7.33179C1.93693 7.67642 1.64107 8.04252 1.29818 8.8678C0.15039 11.6303 0.0473878 14.64 2.29112 16.8238C4.64096 19.1109 8.0633 19.002 10.455 16.8361C12.7813 14.7296 12.9015 11.7649 11.912 8.89657C11.6366 8.09823 11.2981 7.60418 10.9825 7.14959L10.967 7.12722C10.665 6.69221 10.389 6.29474 10.1482 5.64573C9.95221 5.11748 9.96344 4.59006 9.97627 3.98713C9.97927 3.84594 9.98237 3.7006 9.98291 3.55015C9.9856 2.80078 9.9106 1.93539 9.12144 1.27122Z" fill="url(#paint0_radial)"/>
<path d="M9.12144 1.27122C7.84391 0.196009 6.25628 0.296369 4.9797 1.25376C4.17685 1.85587 3.88518 2.80732 3.69376 3.66276C3.64671 3.87303 3.60415 4.08641 3.56281 4.29363L3.55752 4.32014C3.51409 4.53781 3.47173 4.7489 3.42472 4.95555C3.33029 5.37066 3.22201 5.74428 3.06821 6.06789C2.75747 6.72172 2.51781 7.00031 2.26916 7.28936C2.25702 7.30346 2.24487 7.31759 2.23268 7.33179C1.93693 7.67642 1.64107 8.04252 1.29818 8.8678C0.15039 11.6303 0.0473878 14.64 2.29112 16.8238C4.64096 19.1109 8.0633 19.002 10.455 16.8361C12.7813 14.7296 12.9015 11.7649 11.912 8.89657C11.6366 8.09823 11.2981 7.60418 10.9825 7.14959L10.967 7.12722C10.665 6.69221 10.389 6.29474 10.1482 5.64573C9.95221 5.11748 9.96344 4.59006 9.97627 3.98713C9.97927 3.84594 9.98237 3.7006 9.98291 3.55015C9.9856 2.80078 9.9106 1.93539 9.12144 1.27122Z" stroke="#346B12"/>
<path d="M9 11.4083C9 12.651 7.99264 13.6583 6.75 13.6583C5.50736 13.6583 4.5 12.651 4.5 11.4083C4.5 10.1657 5.50736 8.59584 6.75 8.59584C7.99264 8.59584 9 10.1657 9 11.4083Z" fill="#776E1E"/>
<defs>
<radialGradient id="paint0_radial" cx="0" cy="0" r="1" gradientUnits="userSpaceOnUse" gradientTransform="translate(6.5 11) rotate(87.1376) scale(20.025 12.9573)">
<stop stop-color="#F1F44D"/>
<stop offset="1" stop-color="#80E86F" stop-opacity="0"/>
</radialGradient>
</defs>
</svg>
