<svg width="17" height="15" viewBox="0 0 17 15" fill="none" xmlns="http://www.w3.org/2000/svg">
<path d="M16 9C15.2004 12.9837 11.6421 15 7.5 15C3.35786 15 0 11.6421 0 7.5C0 3.35786 5.35786 0 9.5 0C13.6421 0 16.8532 4.74927 16 9Z" fill="#F7F7F7"/>
<path d="M15.902 8.98032C15.1149 12.9015 11.6127 14.9 7.5 14.9C3.41309 14.9 0.1 11.5869 0.1 7.5C0.1 5.47355 1.41189 3.62486 3.2557 2.27744C5.09826 0.930927 7.453 0.1 9.5 0.1C11.531 0.1 13.3416 1.26463 14.5416 2.96367C15.7416 4.66268 16.3225 6.88508 15.902 8.98032Z" stroke="#69726F" stroke-opacity="0.4" stroke-width="0.2"/>
<circle cx="7" cy="8" r="3" fill="#FEB644"/>
</svg>
