<svg width="16" height="24" viewBox="0 0 32 49" fill="none" xmlns="http://www.w3.org/2000/svg">
<path d="M8.00194 48.6158C12.4171 48.6158 16.0003 44.9858 16.0003 40.5132V32.4106H8.00194C3.58682 32.4106 0.00354004 36.0406 0.00354004 40.5132C0.00354004 44.9858 3.58682 48.6158 8.00194 48.6158Z" fill="#0ACF83"/>
<path d="M0.0057373 8.10256C0.0057373 3.62995 3.58902 0 8.00414 0H16.0025V16.2051H8.00414C3.58902 16.2051 0.0057373 12.5752 0.0057373 8.10256Z" fill="#F24E1E"/>
<path d="M16 0H23.9984C28.4135 0 31.9968 3.62995 31.9968 8.10256C31.9968 12.5752 28.4135 16.2051 23.9984 16.2051H16V0Z" fill="#FF7262"/>
<path d="M31.9968 24.3076C31.9968 28.7803 28.4135 32.4102 23.9984 32.4102C19.5833 32.4102 16 28.7803 16 24.3076C16 19.835 19.5833 16.2051 23.9984 16.2051C28.4135 16.2051 31.9968 19.835 31.9968 24.3076Z" fill="#1ABCFE"/>
<path d="M0.00354004 24.3076C0.00354004 19.835 3.58682 16.2051 8.00194 16.2051H16.0003V32.4102H8.00194C3.58682 32.4102 0.00354004 28.7803 0.00354004 24.3076Z" fill="#A259FF"/>
</svg>
