<svg width="17" height="16" viewBox="0 0 17 16" fill="none" xmlns="http://www.w3.org/2000/svg">
<mask id="path-2-inside-1" fill="white">
<path d="M17 7.46393C17 8.38318 16.7801 9.29343 16.353 10.1427C15.9258 10.992 15.2997 11.7637 14.5104 12.4137C13.7211 13.0637 12.7841 13.5793 11.7528 13.9311C10.7215 14.2829 9.61624 14.4639 8.5 14.4639C7.38376 14.4639 6.27846 14.2829 5.24719 13.9311C4.21592 13.5793 3.27889 13.0637 2.48959 12.4137C1.70029 11.7637 1.07419 10.992 0.647024 10.1427C0.219859 9.29343 -9.75844e-08 8.38318 0 7.46393L8.5 7.46393H17Z"/>
</mask>
<path d="M17 7.46393C17 8.38318 16.7801 9.29343 16.353 10.1427C15.9258 10.992 15.2997 11.7637 14.5104 12.4137C13.7211 13.0637 12.7841 13.5793 11.7528 13.9311C10.7215 14.2829 9.61624 14.4639 8.5 14.4639C7.38376 14.4639 6.27846 14.2829 5.24719 13.9311C4.21592 13.5793 3.27889 13.0637 2.48959 12.4137C1.70029 11.7637 1.07419 10.992 0.647024 10.1427C0.219859 9.29343 -9.75844e-08 8.38318 0 7.46393L8.5 7.46393H17Z" fill="#C4C4C4" stroke="#C5DF88" stroke-width="2" mask="url(#path-2-inside-1)"/>
<path d="M17 6.46393C17 7.38318 16.7801 8.29343 16.353 9.14271C15.9258 9.99199 15.2997 10.7637 14.5104 11.4137C13.7211 12.0637 12.7841 12.5793 11.7528 12.9311C10.7215 13.2829 9.61624 13.4639 8.5 13.4639C7.38376 13.4639 6.27846 13.2829 5.24719 12.9311C4.21592 12.5793 3.27889 12.0637 2.48959 11.4137C1.70029 10.7637 1.07419 9.99199 0.647024 9.14271C0.219859 8.29343 -9.75844e-08 7.38318 0 6.46393C0 6.46393 5.17481 6.96393 8.5 6.96393C11.8252 6.96393 17 6.46393 17 6.46393Z" fill="#F8483F"/>
<path d="M17 6.66393C17 9.05087 16.5518 11.3401 14.864 13.0279C13.1761 14.7157 10.8869 15.6639 8.5 15.6639C6.11305 15.6639 3.82387 14.7157 2.13604 13.0279C0.448212 11.3401 3.60419e-07 8.55087 0 6.16393C2.22968e-07 7.64057 0.449858 10.9482 2.5 12.1639C4.04846 13.0821 6.70018 14.1256 8.5 14.1639C10.4908 14.2063 13.203 12.9163 14.864 11.818C16.7633 10.5619 17 8.14057 17 6.66393Z" fill="#357138"/>
<ellipse cx="3.8375" cy="9.02079" rx="0.175297" ry="0.552961" transform="rotate(33.8571 3.8375 9.02079)" fill="#2A2A2A"/>
<ellipse cx="5.45364" cy="10.0208" rx="0.175297" ry="0.552961" transform="rotate(33.8571 5.45364 10.0208)" fill="#2A2A2A"/>
<ellipse cx="6.45364" cy="11.0208" rx="0.175297" ry="0.552961" transform="rotate(33.8571 6.45364 11.0208)" fill="#2A2A2A"/>
<ellipse cx="11.4255" cy="10.0313" rx="0.175297" ry="0.552961" transform="rotate(-29.5912 11.4255 10.0313)" fill="#2A2A2A"/>
<ellipse cx="10.4255" cy="11.0313" rx="0.175297" ry="0.552961" transform="rotate(-29.5912 10.4255 11.0313)" fill="#2A2A2A"/>
<ellipse cx="12.4255" cy="9.03133" rx="0.175297" ry="0.552961" transform="rotate(-29.5912 12.4255 9.03133)" fill="#2A2A2A"/>
<ellipse cx="14.4255" cy="9.03133" rx="0.175297" ry="0.552961" transform="rotate(-29.5912 14.4255 9.03133)" fill="#2A2A2A"/>
</svg>
